<svg width="150" height="150" viewBox="0 0 150 150" fill="none" xmlns="http://www.w3.org/2000/svg">
<g clip-path="url(#clip0_602_39)">
<rect width="149" height="149" fill="#65AE45"/>
<path d="M115.656 49.0142H33.6204V159.512H115.656V49.0142Z" fill="#424242"/>
<path d="M120 169.994V170.003H29.2949V169.994C29.2949 164.873 30.1417 159.939 31.7149 155.349C31.9968 154.519 32.3049 153.698 32.6382 152.886V152.878C32.9379 152.125 33.2712 151.381 33.6213 150.655C33.6475 150.595 33.6726 150.544 33.6988 150.484C34.6473 148.483 35.7498 146.559 36.9813 144.73C37.6824 143.686 38.4349 142.66 39.222 141.677C39.7691 141.002 40.3246 140.344 40.8968 139.711C41.1798 139.386 41.4785 139.07 41.7782 138.753C42.0769 138.446 42.3766 138.138 42.6848 137.83C42.7099 137.805 42.7445 137.77 42.7696 137.753C44.2746 136.248 45.8907 134.873 47.5833 133.607C48.4469 132.966 49.3189 132.367 50.2254 131.787C50.3365 131.709 50.456 131.641 50.5755 131.573C51.3626 131.068 52.1664 130.598 52.987 130.153C52.9954 130.145 53.0038 130.145 53.0122 130.145H53.0206L53.03 130.136C53.3287 129.983 53.619 129.811 53.9104 129.624C53.9785 129.589 54.0382 129.555 54.1064 129.513C54.3464 129.367 54.5853 129.213 54.8253 129.059C54.9018 129.007 54.9794 128.956 55.0559 128.914C55.2613 128.777 55.4657 128.64 55.6711 128.487C55.9279 128.315 56.1846 128.127 56.432 127.939C56.432 127.939 56.432 127.93 56.4404 127.939C56.4498 127.93 56.4582 127.913 56.4666 127.913C56.7055 127.742 56.9455 127.563 57.1761 127.375L57.1845 127.366C58.613 126.229 59.9377 124.955 61.1262 123.562C62.1952 122.314 63.1615 120.971 63.9989 119.543C64.9306 117.987 65.7176 116.337 66.3329 114.609C66.641 113.737 66.9145 112.849 67.1367 111.934C67.3075 111.292 67.4448 110.643 67.5643 109.984C67.8546 108.343 68.0087 106.649 68.0087 104.923L74.6177 104.957H74.6858L75.8061 104.965L81.4153 104.991C81.4153 106.684 81.5599 108.343 81.8429 109.959C81.954 110.626 82.0986 111.284 82.2694 111.934C82.4832 112.832 82.7484 113.712 83.0481 114.567C83.6633 116.311 84.441 117.979 85.3738 119.543C86.1346 120.842 86.9982 122.065 87.9551 123.219C89.2033 124.75 90.615 126.135 92.1619 127.375C92.3841 127.563 92.6063 127.742 92.8369 127.905C92.906 127.973 92.9826 128.024 93.0601 128.067C93.0685 128.084 93.0769 128.092 93.0937 128.101C93.1282 128.119 93.1628 128.135 93.188 128.162C93.2047 128.17 93.2226 128.178 93.2393 128.195C93.3075 128.255 93.3756 128.306 93.4531 128.358C93.6586 128.495 93.8545 128.64 94.0599 128.777C94.1281 128.828 94.1878 128.871 94.257 128.914L94.7181 129.221C94.8806 129.324 95.0346 129.418 95.1971 129.513C95.3763 129.614 95.5482 129.726 95.7274 129.828C95.8982 129.939 96.0774 130.042 96.2577 130.136C96.3174 130.153 96.3604 130.188 96.4107 130.214L96.6937 130.367C96.7534 130.401 96.8132 130.436 96.8645 130.469C97.0951 130.598 97.3173 130.726 97.5395 130.854C97.9073 131.068 98.2836 131.29 98.6431 131.522C98.9931 131.735 99.3442 131.958 99.6859 132.205C100.395 132.659 101.088 133.155 101.763 133.667C101.763 133.675 101.771 133.675 101.771 133.675H101.781C102.644 134.317 103.482 135.001 104.303 135.702C105.072 136.361 105.807 137.045 106.525 137.763C106.577 137.806 106.62 137.848 106.671 137.899C108.766 139.986 110.655 142.268 112.305 144.731C113.562 146.595 114.682 148.561 115.657 150.613C118.444 156.485 120 163.052 120 169.994Z" fill="#ECC19C"/>
<path d="M120 169.994H29.2949C29.2949 164.872 30.1417 159.939 31.7149 155.349C31.9968 154.519 32.3049 153.698 32.6382 152.886V152.877C32.9379 152.125 33.2712 151.381 33.6213 150.655C33.6475 150.595 33.6726 150.543 33.6988 150.484C34.6473 148.483 35.7498 146.559 36.9813 144.73C37.6824 143.686 38.4349 142.66 39.222 141.677C39.7691 141.002 40.3246 140.344 40.8968 139.711C41.1798 139.386 41.4785 139.069 41.7782 138.753C42.0769 138.446 42.3766 138.138 42.6848 137.83C42.7099 137.804 42.7445 137.77 42.7696 137.753C44.2746 136.248 45.8907 134.873 47.5833 133.607C48.4469 132.966 49.3189 132.367 50.2254 131.787C50.3365 131.709 50.456 131.641 50.5755 131.573C51.3626 131.068 52.1664 130.598 52.987 130.153C52.987 130.144 52.9954 130.144 52.9954 130.144C53.0038 130.136 53.0038 130.136 53.0122 130.144H53.0206V130.136H53.03C53.3287 129.965 53.619 129.794 53.9104 129.623C53.9785 129.589 54.0382 129.554 54.1064 129.512C54.3464 129.367 54.5853 129.213 54.8253 129.058C55.0559 128.904 55.2865 128.742 55.517 128.589C55.6113 128.52 55.7057 128.452 55.8 128.384C56.0138 128.238 56.2276 128.084 56.432 127.93C56.4403 127.921 56.4582 127.913 56.4666 127.913C56.4749 127.905 56.4833 127.896 56.4917 127.888C56.7139 127.716 56.9371 127.537 57.1593 127.358L57.1677 127.349C57.1761 127.358 57.1761 127.358 57.1845 127.366C57.6718 127.862 58.1675 128.341 58.6978 128.793C58.9546 129.016 59.2198 129.229 59.4849 129.443C59.4933 129.461 59.4933 129.461 59.5017 129.452C59.7501 129.649 59.989 129.837 60.2374 130.025C60.2972 130.068 60.3485 130.111 60.4083 130.144C60.665 130.325 60.9207 130.504 61.1775 130.675C61.7592 131.059 62.3576 131.419 62.9644 131.752C63.2726 131.923 63.5796 132.085 63.8961 132.239C64.221 132.402 64.5459 132.547 64.8708 132.684C64.9138 132.718 64.9568 132.735 64.9997 132.743C65.3666 132.906 65.7344 133.06 66.1107 133.197C66.4869 133.333 66.8716 133.471 67.2562 133.59C67.5475 133.685 67.8378 133.769 68.1365 133.847C68.4017 133.924 68.6669 133.992 68.932 134.051C68.9917 134.078 69.0515 134.086 69.1207 134.094C69.9842 134.291 70.873 134.445 71.7796 134.557C72.0866 134.59 72.3948 134.625 72.7113 134.65C73.3443 134.701 73.9763 134.727 74.6177 134.727H74.6858C74.8744 134.727 75.062 134.727 75.2507 134.719C75.2591 134.727 75.2674 134.727 75.2758 134.719C75.345 134.727 75.4131 134.727 75.4812 134.719C75.498 134.727 75.5158 134.719 75.5326 134.711C75.6269 134.711 75.7118 134.701 75.8061 134.693C76.2075 134.676 76.6016 134.65 76.9946 134.616C77.3363 134.582 77.679 134.539 78.0123 134.497C78.0636 134.497 78.1055 134.497 78.1485 134.487C78.1915 134.479 78.2345 134.479 78.2774 134.462C78.5426 134.428 78.7983 134.376 79.0551 134.334C79.0813 134.334 79.1148 134.325 79.141 134.325C79.1829 134.325 79.2259 134.317 79.2605 134.3C79.2951 134.291 79.3286 134.283 79.3632 134.275C79.4638 134.256 79.5623 134.235 79.6619 134.214C79.7981 134.187 79.9344 134.158 80.0696 134.128C80.2027 134.1 80.3358 134.072 80.4657 134.035C80.842 133.94 81.2182 133.847 81.5861 133.736C81.954 133.625 82.3208 133.513 82.6803 133.385C83.2441 133.197 83.7912 132.983 84.3299 132.752C84.6894 132.599 85.031 132.445 85.3821 132.264C85.6808 132.128 85.9722 131.974 86.2541 131.812C86.4679 131.701 86.6733 131.581 86.8777 131.462C87.1093 131.341 87.3315 131.205 87.5537 131.059C87.6134 131.026 87.6732 130.991 87.7329 130.956C87.9215 130.837 88.1008 130.718 88.28 130.589C88.3827 130.529 88.477 130.461 88.5713 130.393C88.6311 130.358 88.6824 130.315 88.7338 130.282C88.9811 130.111 89.2211 129.93 89.4601 129.743C89.4685 129.743 89.4768 129.743 89.4768 129.734C89.5282 129.7 89.589 129.657 89.6393 129.614C89.7514 129.529 89.8709 129.435 89.982 129.332C90.1612 129.196 90.3404 129.05 90.5123 128.904C91.0846 128.425 91.6316 127.913 92.1536 127.383L92.1703 127.366C92.4617 127.605 92.7604 127.836 93.0601 128.067C93.0685 128.084 93.0769 128.092 93.0937 128.101C93.1282 128.118 93.1628 128.135 93.188 128.161C93.2047 128.17 93.2226 128.178 93.2393 128.195C93.5045 128.392 93.778 128.589 94.0599 128.777C94.1281 128.828 94.1878 128.871 94.257 128.914C94.5641 129.118 94.8806 129.315 95.1971 129.512C95.5482 129.726 95.9066 129.93 96.2661 130.127C96.3258 130.144 96.3688 130.179 96.4201 130.204C96.5134 130.255 96.6077 130.315 96.6937 130.366C96.7534 130.401 96.8132 130.436 96.8645 130.469C97.0951 130.598 97.3173 130.726 97.5395 130.854C97.9073 131.068 98.2836 131.29 98.6431 131.521C98.9931 131.735 99.3442 131.957 99.6859 132.205C100.395 132.659 101.088 133.154 101.763 133.667H101.781C102.644 134.317 103.49 134.993 104.303 135.702C105.072 136.36 105.807 137.045 106.525 137.763C106.577 137.805 106.62 137.847 106.671 137.899C108.766 139.985 110.655 142.268 112.305 144.731C113.562 146.594 114.682 148.561 115.657 150.613C118.444 156.485 120 163.052 120 169.994Z" fill="#EB6D4A"/>
<path d="M74.7193 134.735L74.6942 134.778L74.6847 134.795C74.668 134.812 74.6596 134.838 74.6428 134.855C72.2313 138.557 68.256 140.489 64.2546 140.489C60.9795 140.489 57.6886 139.198 55.2173 136.548L50.5745 131.573C51.3615 131.068 52.1654 130.598 52.986 130.153C52.9944 130.145 53.0028 130.145 53.0112 130.145H53.0196V130.136H53.029C53.3277 129.965 53.618 129.795 53.9093 129.624C53.9775 129.589 54.0372 129.555 54.1064 129.513C54.3453 129.367 54.5843 129.213 54.8243 129.059C54.9008 129.008 54.9783 128.956 55.0549 128.914C55.2089 128.803 55.363 128.7 55.516 128.589C55.5674 128.555 55.6187 128.52 55.6701 128.487C55.9268 128.306 56.1836 128.127 56.4309 127.94C56.4309 127.93 56.4309 127.93 56.4404 127.94C56.4571 127.913 56.4739 127.905 56.4907 127.888C56.7139 127.716 56.9361 127.537 57.1583 127.358C57.1667 127.366 57.1667 127.366 57.1751 127.375C57.6624 127.87 58.1665 128.349 58.6968 128.794C58.9536 129.025 59.2187 129.248 59.4839 129.444C59.4923 129.461 59.4923 129.461 59.5007 129.452C59.7407 129.657 59.988 129.846 60.2364 130.025C60.2961 130.068 60.3475 130.111 60.4072 130.145C60.6546 130.333 60.9113 130.513 61.1765 130.675C61.7498 131.068 62.3482 131.427 62.9634 131.752C63.2715 131.923 63.5786 132.086 63.8951 132.24C64.22 132.402 64.5449 132.548 64.8698 132.684C64.9128 132.719 64.9557 132.735 64.9977 132.744C65.7323 133.069 66.4859 133.342 67.2541 133.591C67.5455 133.685 67.8358 133.77 68.1345 133.847C68.3996 133.924 68.6648 133.992 68.9299 134.052C68.9897 134.078 69.0494 134.086 69.1186 134.095C69.9822 134.309 70.8709 134.463 71.7775 134.557C72.0856 134.6 72.3927 134.633 72.7092 134.65C73.3338 134.711 73.9658 134.736 74.6072 134.736H74.7193V134.735Z" fill="#E7ECF2"/>
<path d="M98.8056 131.637L94.2319 136.545C91.7606 139.196 88.4687 140.486 85.1862 140.486C81.167 140.486 77.1655 138.536 74.7634 134.792L74.755 134.775L74.7205 134.732C81.5432 134.724 87.7162 131.902 92.1536 127.379L92.162 127.371C92.7699 127.876 93.4019 128.345 94.0517 128.781C94.1208 128.833 94.1806 128.876 94.2487 128.919C94.5568 129.124 94.8723 129.32 95.1888 129.517C95.5399 129.731 95.8983 129.936 96.2578 130.132C96.3175 130.15 96.3605 130.184 96.4119 130.21C97.1644 130.628 97.9074 131.064 98.6348 131.526C98.6945 131.561 98.7459 131.594 98.8056 131.637Z" fill="#E7ECF2"/>
<path d="M98.8735 31.3326C98.8735 37.1378 97.7112 42.661 95.5983 47.6968C95.4107 48.1412 95.2231 48.5772 95.0093 49.0132C90.8706 58.0253 83.638 65.327 74.6856 69.5842C74.6688 69.5842 74.6605 69.5926 74.6437 69.602C69.154 72.2012 63.024 73.6538 56.5523 73.6538C52.5425 73.6538 48.6606 73.0983 44.984 72.0555C43.4025 71.6027 41.8629 71.064 40.3674 70.4478H40.359C40.1787 70.3713 40.0079 70.2937 39.8371 70.2172C39.6914 70.1575 39.5551 70.0978 39.4178 70.038C38.4945 68.4901 37.6655 66.874 36.9392 65.1981C36.1773 63.429 35.5359 61.5813 35.0234 59.6833C34.1084 56.2897 33.6211 52.6981 33.6211 49.0132C33.6211 26.3649 51.986 8 74.6437 8H74.6856C82.0219 8.00838 88.9045 9.94098 94.8636 13.3272C95.1204 13.8649 95.3594 14.413 95.5983 14.9685C96.3854 16.8319 97.0268 18.7477 97.5393 20.7306V20.739C98.4113 24.1263 98.8735 27.6739 98.8735 31.3326Z" fill="#141720"/>
<path d="M115.656 49.0144C115.656 55.4012 114.194 61.4463 111.595 66.8323C104.515 62.2324 98.8988 55.572 95.5985 47.6981C93.4772 42.6622 92.3149 37.139 92.3149 31.3339C92.3149 25.5277 93.4772 20.0045 95.5985 14.9687C95.7347 14.6438 95.872 14.3283 96.0166 14.0034C107.79 21.2108 115.656 34.1972 115.656 49.0144Z" fill="#141720"/>
<path d="M109.458 46.9536V73.0646C109.458 73.4063 109.449 73.7406 109.441 74.0823C109.432 74.3904 109.423 74.6891 109.407 74.9972C109.398 75.2708 109.38 75.5443 109.355 75.8178C109.347 76.0149 109.33 76.2109 109.312 76.4079C109.304 76.5274 109.295 76.6385 109.279 76.7579C109.261 76.9717 109.244 77.1939 109.209 77.4077C109.176 77.8186 109.125 78.22 109.065 78.6308C109.056 78.7335 109.039 78.8362 109.022 78.9389C108.996 79.1433 108.962 79.3487 108.928 79.5541V79.5793C108.919 79.6222 108.911 79.6568 108.911 79.6998C108.859 79.9555 108.816 80.2123 108.773 80.4691C108.697 80.8788 108.62 81.2897 108.535 81.6911C108.526 81.7089 108.526 81.7257 108.518 81.7424C108.508 81.8022 108.5 81.863 108.483 81.9227C108.475 81.9395 108.475 81.9562 108.466 81.9741C108.432 82.1533 108.389 82.3325 108.346 82.5033C108.337 82.5463 108.329 82.5809 108.321 82.6239C108.304 82.7171 108.286 82.8114 108.253 82.9058C108.226 83.0598 108.183 83.2139 108.15 83.3669C108.124 83.4529 108.107 83.5472 108.072 83.6331C108.056 83.7107 108.03 83.7872 108.013 83.8553C107.833 84.5564 107.628 85.2408 107.414 85.9252C107.311 86.2501 107.209 86.5656 107.098 86.8904C107.089 86.925 107.073 86.9596 107.064 86.9932C106.97 87.2667 106.867 87.5497 106.773 87.8243C106.764 87.841 106.764 87.8494 106.756 87.8662C106.721 87.9521 106.688 88.037 106.653 88.1313C106.551 88.4049 106.448 88.6784 106.337 88.9519C106.209 89.2863 106.073 89.6112 105.935 89.9361C105.816 90.2264 105.687 90.5167 105.559 90.808C105.542 90.8594 105.516 90.9013 105.499 90.9527C105.354 91.2608 105.217 91.5689 105.072 91.8676C104.926 92.1841 104.772 92.5006 104.61 92.8171C104.601 92.8339 104.593 92.8423 104.584 92.8601C104.285 93.4669 103.96 94.0821 103.635 94.6722L103.174 95.4928C101.857 97.7587 100.395 99.8873 98.8045 101.854C98.5907 102.136 98.3685 102.41 98.1379 102.675C97.8214 103.06 97.4965 103.436 97.1716 103.804C96.8981 104.111 96.6162 104.427 96.3248 104.727C96.3164 104.744 96.308 104.752 96.2913 104.769C95.4706 105.65 94.6322 106.488 93.777 107.275C93.6062 107.446 93.4269 107.6 93.2477 107.762C92.9564 108.027 92.6661 108.283 92.3663 108.532C92.1358 108.737 91.8968 108.933 91.6568 109.13C91.0416 109.634 90.4264 110.121 89.8018 110.575C89.545 110.771 89.2798 110.96 89.0157 111.139C88.5881 111.447 88.1521 111.738 87.7151 112.019C87.4761 112.182 87.2288 112.336 86.9804 112.482C86.9375 112.507 86.9029 112.533 86.8609 112.55C86.0309 113.063 85.1851 113.533 84.3551 113.944C84.1413 114.055 83.9285 114.157 83.7147 114.26C83.5009 114.363 83.2787 114.465 83.0471 114.567C82.7652 114.696 82.4833 114.816 82.2013 114.927C82.0902 114.978 81.9791 115.021 81.8681 115.055C81.5337 115.192 81.1921 115.32 80.8588 115.431C80.4396 115.585 80.012 115.714 79.5938 115.833C79.3024 115.918 79.0037 115.996 78.7124 116.064C78.6956 116.072 78.6789 116.081 78.6527 116.081C78.3623 116.15 78.072 116.218 77.7807 116.269C77.7042 116.286 77.6266 116.303 77.5501 116.312C77.3101 116.354 77.0712 116.397 76.8322 116.423C76.4895 116.475 76.1478 116.517 75.8062 116.534C75.6856 116.551 75.5745 116.56 75.4551 116.56C75.1815 116.576 74.9164 116.586 74.6512 116.586H74.6177C74.3525 116.586 74.0874 116.576 73.8222 116.56C73.7195 116.56 73.6168 116.551 73.5141 116.534C73.2751 116.525 73.0267 116.5 72.771 116.465C72.7197 116.465 72.6599 116.457 72.6086 116.448C72.2921 116.406 71.9756 116.354 71.6507 116.294C71.3771 116.251 71.1036 116.192 70.8217 116.124C69.3596 115.79 67.8546 115.286 66.3329 114.61C65.0333 114.038 63.7159 113.345 62.4079 112.541C62.3314 112.498 62.2633 112.447 62.1858 112.404C61.6041 112.046 61.0151 111.661 60.4418 111.259C60.1169 111.028 59.792 110.797 59.4671 110.557C58.4495 109.814 57.4402 109.002 56.4488 108.13C56.1752 107.882 55.9017 107.633 55.6281 107.378C55.3546 107.129 55.0811 106.872 54.8159 106.625C54.1829 106.017 53.5677 105.394 52.9776 104.736C52.9347 104.701 52.9011 104.658 52.8665 104.624C52.6192 104.359 52.3708 104.086 52.1224 103.804C51.4391 103.033 50.7715 102.239 50.1395 101.409C49.8911 101.11 49.6606 100.802 49.43 100.495C48.5664 99.3486 47.7447 98.1517 46.9755 96.9119C46.7701 96.5786 46.5657 96.2369 46.3687 95.9036C46.1297 95.5012 45.8981 95.0914 45.6675 94.6806C45.3342 94.0821 45.0177 93.4753 44.7106 92.8601C44.2139 91.8938 43.7611 90.9013 43.3419 89.8931C43.2392 89.6531 43.1365 89.4141 43.0516 89.1752C42.9143 88.8671 42.7948 88.5505 42.6837 88.2424C42.6324 88.0978 42.5726 87.9521 42.5297 87.8064C42.4102 87.4994 42.2991 87.1912 42.1964 86.8831C42.0423 86.4303 41.8977 85.9682 41.752 85.507C41.6147 85.0627 41.4869 84.6172 41.3674 84.1645C41.2301 83.6855 41.1022 83.1982 40.9911 82.7025C40.9827 82.6511 40.9649 82.5997 40.9565 82.5484C40.9565 82.5316 40.9482 82.5232 40.9482 82.5054C40.7857 81.8389 40.6495 81.1545 40.5206 80.4712C40.4692 80.2144 40.4262 79.9576 40.3927 79.6925C40.2732 79.0259 40.1873 78.3426 40.1097 77.6582C40.0678 77.3585 40.0416 77.0598 40.0164 76.76C39.9819 76.4435 39.9567 76.1364 39.9389 75.8199C39.897 75.2467 39.8708 74.666 39.854 74.0844C39.8456 73.7427 39.8362 73.4084 39.8362 73.0667V46.9536C39.8362 28.3749 54.3967 13.1908 72.7364 12.1983C72.771 12.1899 72.7962 12.1899 72.8308 12.1899C73.0697 12.1816 73.3097 12.1732 73.5487 12.1648C73.9081 12.1554 74.2582 12.147 74.6177 12.147H74.6512C75.0191 12.147 75.3869 12.1554 75.7548 12.1648H75.8313C76.0881 12.1732 76.3449 12.1816 76.6006 12.1983H76.6268C76.7463 12.2067 76.8657 12.2161 76.9852 12.2245C77.242 12.2413 77.4987 12.2581 77.7461 12.2843C77.875 12.2927 77.9945 12.301 78.1223 12.3189C78.2083 12.3272 78.2848 12.3356 78.3707 12.344C79.73 12.4897 81.0642 12.7119 82.3638 13.0022C84.6297 13.5157 86.8096 14.2504 88.8784 15.1821C90.811 16.0457 92.6493 17.0801 94.367 18.2686C95.1709 18.8157 95.9402 19.3974 96.6843 20.0136C96.9746 20.2526 97.2576 20.4915 97.5395 20.7315V20.7399C99.1891 22.1768 100.702 23.7583 102.045 25.4854C106.628 31.3241 109.39 38.6604 109.449 46.6455C109.458 46.7482 109.458 46.8509 109.458 46.9536Z" fill="#ECC19C"/>
<path d="M115.657 49.0141C115.657 49.4763 115.648 49.9291 115.632 50.3902C115.622 50.8356 115.597 51.2884 115.563 51.7328V51.7841C115.537 52.2285 115.494 52.6645 115.451 53.1005C115.408 53.5459 115.358 53.9903 115.297 54.4346C115.238 54.879 115.17 55.3244 115.101 55.7604C115.024 56.2048 114.947 56.6408 114.861 57.0768C114.853 57.1019 114.845 57.1365 114.845 57.1711C114.674 58.0085 114.477 58.8291 114.255 59.6497C114.127 60.1287 113.998 60.5992 113.853 61.0698C113.716 61.5393 113.562 62.0015 113.399 62.4627C113.255 62.8903 113.092 63.3179 112.938 63.7371C112.92 63.7717 112.904 63.8052 112.895 63.8398C112.716 64.2842 112.536 64.7369 112.34 65.1823C112.108 65.7378 111.861 66.2933 111.596 66.832C110.869 66.3614 110.15 65.8657 109.459 65.3354C109.21 65.1561 108.962 64.9769 108.723 64.7799C108.458 64.5829 108.201 64.3785 107.945 64.1731C107.218 63.583 106.508 62.9678 105.824 62.318C105.636 62.1472 105.448 61.9753 105.26 61.7877C104.97 61.5142 104.688 61.2323 104.405 60.9493C103.243 59.7608 102.149 58.5126 101.139 57.1962C100.831 56.8032 100.541 56.4102 100.251 55.9994C99.9676 55.6147 99.6941 55.2217 99.4289 54.8193C98.5234 53.46 97.6934 52.0493 96.9409 50.5873C96.7616 50.2456 96.5908 49.8945 96.4284 49.5361C96.3424 49.3642 96.2575 49.1934 96.18 49.0141C96.18 49.0141 96.1716 49.0058 96.1716 48.9974C95.9756 48.5698 95.7786 48.1338 95.5994 47.6978C95.4107 48.1422 95.2231 48.5782 95.0093 49.0141C90.8706 58.0252 83.638 65.327 74.6867 69.5852C74.6688 69.5852 74.6605 69.5936 74.6437 69.602C69.154 72.2011 63.024 73.6547 56.5523 73.6547C52.5425 73.6547 48.6605 73.0993 44.984 72.0554C43.4025 71.6027 41.864 71.064 40.3674 70.4488H40.359C40.1787 70.3712 40.0079 70.2947 39.8371 70.2182C39.6914 70.1574 39.5551 70.0977 39.4178 70.0379C38.4945 68.491 37.6655 66.8749 36.9392 65.1991C36.1773 63.429 35.5369 61.5823 35.0234 59.6843C34.1084 56.2897 33.6211 52.6991 33.6211 49.0141C33.6211 26.3659 51.986 8.00098 74.6437 8.00098H74.6867C82.0219 8.00936 88.9044 9.94196 94.8636 13.3271C95.2483 13.5409 95.6329 13.7715 96.0175 14.0031C107.791 21.2105 115.657 34.1969 115.657 49.0141Z" fill="#424242"/>
</g>
<defs>
<clipPath id="clip0_602_39">
<rect width="149.289" height="149.289" fill="white"/>
</clipPath>
</defs>
</svg>
